<?xml version="1.0" encoding="UTF-8" standalone="no"?>
<!-- Created with Inkscape (http://www.inkscape.org/) -->

<svg
   width="50"
   height="50"
   viewBox="0 0 13.229166 13.229166"
   version="1.1"
   id="svg5"
   xml:space="preserve"
   inkscape:version="1.2.1 (9c6d41e410, 2022-07-14, custom)"
   sodipodi:docname="connect-all.svg"
   xmlns:inkscape="http://www.inkscape.org/namespaces/inkscape"
   xmlns:sodipodi="http://sodipodi.sourceforge.net/DTD/sodipodi-0.dtd"
   xmlns="http://www.w3.org/2000/svg"
   xmlns:svg="http://www.w3.org/2000/svg"><sodipodi:namedview
     id="namedview7"
     pagecolor="#ffffff"
     bordercolor="#000000"
     borderopacity="0.25"
     inkscape:showpageshadow="2"
     inkscape:pageopacity="0.0"
     inkscape:pagecheckerboard="0"
     inkscape:deskcolor="#d1d1d1"
     inkscape:document-units="px"
     showgrid="false"
     inkscape:zoom="11.313708"
     inkscape:cx="7.6455921"
     inkscape:cy="25.632621"
     inkscape:window-width="1920"
     inkscape:window-height="1011"
     inkscape:window-x="0"
     inkscape:window-y="0"
     inkscape:window-maximized="1"
     inkscape:current-layer="layer1"
     showguides="true" /><defs
     id="defs2" /><g
     inkscape:label="Шар 1"
     inkscape:groupmode="layer"
     id="layer1"
     transform="translate(-45.556909,-123.09998)"><path
       id="path188"
       style="stroke-width:0.264583"
       d="m 47.800242,124.68485 v 0.79342 h 4.427242 c 0.188373,3e-4 0.340636,-0.17667 0.340722,-0.39554 6.2e-5,-0.21888 -0.152047,-0.39579 -0.340419,-0.39588 z"
       sodipodi:nodetypes="cccccc" /><path
       id="path365"
       style="stroke-width:0.264583"
       d="m 52.568206,125.08273 h -0.79872 v 9.26042 h 0.79872 z"
       sodipodi:nodetypes="ccccc" /><path
       id="path469"
       style="stroke-width:0.264583"
       d="m 56.542537,134.74427 4.09e-4,-0.79343 -4.432165,-0.003 c -0.188582,-4.2e-4 -0.3411,0.17644 -0.341294,0.39531 -1.69e-4,0.21888 0.152023,0.3959 0.340605,0.39611 z"
       sodipodi:nodetypes="cccccc" /><path
       id="path1095"
       style="stroke-width:0.264582"
       d="m 56.309968,133.28931 c -0.02285,-8e-4 -0.04599,0.003 -0.06782,0.0129 -0.05803,0.0251 -0.09635,0.0819 -0.09635,0.14537 v 0.47585 0.84594 0.47771 c 0,0.0634 0.03776,0.12073 0.09598,0.14591 0.05824,0.025 0.125871,0.0131 0.171962,-0.0304 l 0.953291,-0.89974 c 0.06355,-0.0596 0.06355,-0.17065 1.05e-4,-0.23145 l -0.387271,-0.36525 -0.565738,-0.53356 c -0.02883,-0.0272 -0.06608,-0.042 -0.104168,-0.0433 z" /><path
       id="path1324"
       style="stroke-width:0.264582"
       d="m 47.636382,126.13984 c 0.02285,7.6e-4 0.04598,-0.003 0.06779,-0.0131 0.05798,-0.0252 0.09618,-0.0821 0.09607,-0.14556 l -9.28e-4,-0.47586 -0.0017,-0.84593 -9.36e-4,-0.47771 c -1.7e-4,-0.0634 -0.03799,-0.12065 -0.09627,-0.14571 -0.05829,-0.0249 -0.125898,-0.0128 -0.171902,0.0307 l -0.951512,0.90162 c -0.06343,0.0597 -0.06322,0.17078 3.8e-4,0.23145 l 0.387992,0.36448 0.566792,0.53245 c 0.02888,0.0272 0.06616,0.0419 0.104253,0.0431 z" /></g></svg>
