<?xml version="1.0" encoding="UTF-8" standalone="no"?>
<!-- Created with Inkscape (http://www.inkscape.org/) -->

<svg
   width="50"
   height="50"
   viewBox="0 0 13.229166 13.229166"
   version="1.1"
   id="svg5"
   xml:space="preserve"
   inkscape:version="1.2.1 (9c6d41e410, 2022-07-14, custom)"
   sodipodi:docname="connect.svg"
   xmlns:inkscape="http://www.inkscape.org/namespaces/inkscape"
   xmlns:sodipodi="http://sodipodi.sourceforge.net/DTD/sodipodi-0.dtd"
   xmlns="http://www.w3.org/2000/svg"
   xmlns:svg="http://www.w3.org/2000/svg"><sodipodi:namedview
     id="namedview7"
     pagecolor="#ffffff"
     bordercolor="#000000"
     borderopacity="0.25"
     inkscape:showpageshadow="2"
     inkscape:pageopacity="0.0"
     inkscape:pagecheckerboard="0"
     inkscape:deskcolor="#d1d1d1"
     inkscape:document-units="px"
     showgrid="false"
     inkscape:zoom="16"
     inkscape:cx="40.875"
     inkscape:cy="28.8125"
     inkscape:window-width="1920"
     inkscape:window-height="1011"
     inkscape:window-x="0"
     inkscape:window-y="0"
     inkscape:window-maximized="1"
     inkscape:current-layer="layer1"
     showguides="true" /><defs
     id="defs2" /><g
     inkscape:label="Шар 1"
     inkscape:groupmode="layer"
     id="layer1"
     transform="translate(-45.556909,-123.09998)"><path
       id="path188"
       style="stroke-width:0.264583"
       d="m 47.800242,124.68485 v 0.79342 h 4.427242 c 0.188373,3e-4 0.340636,-0.17667 0.340722,-0.39554 6.2e-5,-0.21888 -0.152047,-0.39579 -0.340419,-0.39588 z"
       sodipodi:nodetypes="cccccc" /><path
       id="path365"
       style="stroke-width:0.264583"
       d="m 52.568206,125.08273 h -0.79872 v 9.26042 h 0.79872 z"
       sodipodi:nodetypes="ccccc" /><path
       id="path469"
       style="stroke-width:0.264583"
       d="m 56.542537,134.74427 4.09e-4,-0.79343 -4.432165,-0.003 c -0.188582,-4.2e-4 -0.3411,0.17644 -0.341294,0.39531 -1.69e-4,0.21888 0.152023,0.3959 0.340605,0.39611 z"
       sodipodi:nodetypes="cccccc" /><path
       id="path540"
       style="fill:#000000;fill-rule:evenodd;stroke-width:0.264583"
       d="m 47.138784,124.02323 a 1.0583333,1.0583333 0 0 0 -1.058332,1.05833 1.0583333,1.0583333 0 0 0 1.058332,1.05834 1.0583333,1.0583333 0 0 0 1.058333,-1.05834 1.0583333,1.0583333 0 0 0 -1.058333,-1.05833 z m 0,0.39688 a 0.66145831,0.66145831 0 0 1 0.661459,0.66145 0.66145831,0.66145831 0 0 1 -0.661459,0.66146 0.66145831,0.66145831 0 0 1 -0.661458,-0.66146 0.66145831,0.66145831 0 0 1 0.661458,-0.66145 z" /><path
       id="path1095"
       style="stroke-width:0.264582"
       d="m 56.309968,133.28931 c -0.02285,-8e-4 -0.04599,0.003 -0.06782,0.0129 -0.05803,0.0251 -0.09635,0.0819 -0.09635,0.14537 v 0.47585 0.84594 0.47771 c 0,0.0634 0.03776,0.12073 0.09598,0.14591 0.05824,0.025 0.125871,0.0131 0.171962,-0.0304 l 0.953291,-0.89974 c 0.06355,-0.0596 0.06355,-0.17065 1.05e-4,-0.23145 l -0.387271,-0.36525 -0.565738,-0.53356 c -0.02883,-0.0272 -0.06608,-0.042 -0.104168,-0.0433 z" /></g></svg>
