<?xml version="1.0" encoding="UTF-8" standalone="no"?>
<svg
   viewBox="0 0 50 50"
   version="1.1"
   id="svg4"
   sodipodi:docname="fill-drip-small.svg"
   inkscape:version="1.2.1 (9c6d41e410, 2022-07-14, custom)"
   width="50"
   height="50"
   xmlns:inkscape="http://www.inkscape.org/namespaces/inkscape"
   xmlns:sodipodi="http://sodipodi.sourceforge.net/DTD/sodipodi-0.dtd"
   xmlns="http://www.w3.org/2000/svg"
   xmlns:svg="http://www.w3.org/2000/svg">
  <defs
     id="defs8" />
  <sodipodi:namedview
     id="namedview6"
     pagecolor="#ffffff"
     bordercolor="#000000"
     borderopacity="0.25"
     inkscape:showpageshadow="2"
     inkscape:pageopacity="0.0"
     inkscape:pagecheckerboard="0"
     inkscape:deskcolor="#d1d1d1"
     showgrid="false"
     inkscape:zoom="1.5273438"
     inkscape:cx="249.78004"
     inkscape:cy="255.99999"
     inkscape:window-width="1920"
     inkscape:window-height="1011"
     inkscape:window-x="0"
     inkscape:window-y="0"
     inkscape:window-maximized="1"
     inkscape:current-layer="svg4" />
  <!--! Font Awesome Free 6.1.2 by @fontawesome - https://fontawesome.com License - https://fontawesome.com/license/free (Icons: CC BY 4.0, Fonts: SIL OFL 1.1, Code: MIT License) Copyright 2022 Fonticons, Inc. -->
  <path
     d="m 5.5492057,5.6478485 c 0.9808371,-0.9805232 2.5705779,-0.9805232 3.5514151,0 l 6.3848572,6.3847005 4.166596,-4.1650269 c 2.204922,-2.2065696 5.783015,-2.2065696 7.987938,0 L 39.519911,19.75056 c 2.212768,2.204922 2.212768,5.783015 0,7.987937 L 24.5798,42.686455 c -2.942512,2.942511 -7.713303,2.942511 -10.655814,0 l -9.2175155,-9.21987 c -2.941962,-2.94251 -2.941962,-7.713302 0,-10.655814 L 11.930924,15.513343 5.5492057,9.1991065 c -0.9800524,-0.980837 -0.9800524,-2.5705778 0,-3.551258 z M 19.361746,23.006939 15.485478,19.138518 8.2571009,26.365325 c -0.3287767,0.329562 -0.5476996,0.721897 -0.655984,1.145618 H 32.646204 l 3.327,-3.319153 c 0.243247,-0.251094 0.243247,-0.643429 0,-0.894524 l -11.8799,-11.879113 c -0.251093,-0.244817 -0.643429,-0.244817 -0.894523,0 l -4.158749,4.165811 3.868421,3.876268 c 0.980838,0.980837 0.980838,2.56587 0,3.546707 -0.980837,0.980837 -2.56587,0.980837 -3.546707,0 z m 18.094483,17.058719 c 0,-1.977367 2.558023,-6.245971 4.017509,-8.529359 0.478649,-0.73759 1.530105,-0.73759 2.008755,0 1.459485,2.283388 4.017508,6.551992 4.017508,8.529359 0,2.769884 -2.252002,5.021886 -5.021886,5.021886 -2.769884,0 -5.021886,-2.252002 -5.021886,-5.021886 z"
     id="path2"
     style="stroke-width:0.999997" />
</svg>
