<?xml version="1.0" encoding="UTF-8" standalone="no"?>
<svg
   viewBox="0 0 45 45"
   version="1.1"
   id="svg4"
   sodipodi:docname="trash-save.svg"
   inkscape:version="1.2.1 (9c6d41e410, 2022-07-14, custom)"
   width="45"
   height="45"
   xml:space="preserve"
   xmlns:inkscape="http://www.inkscape.org/namespaces/inkscape"
   xmlns:sodipodi="http://sodipodi.sourceforge.net/DTD/sodipodi-0.dtd"
   xmlns="http://www.w3.org/2000/svg"
   xmlns:svg="http://www.w3.org/2000/svg"><defs
     id="defs8" /><sodipodi:namedview
     id="namedview6"
     pagecolor="#ffffff"
     bordercolor="#000000"
     borderopacity="0.25"
     inkscape:showpageshadow="2"
     inkscape:pageopacity="0.0"
     inkscape:pagecheckerboard="0"
     inkscape:deskcolor="#d1d1d1"
     showgrid="false"
     inkscape:zoom="8.639961"
     inkscape:cx="16.608871"
     inkscape:cy="37.500169"
     inkscape:window-width="1920"
     inkscape:window-height="1011"
     inkscape:window-x="0"
     inkscape:window-y="0"
     inkscape:window-maximized="1"
     inkscape:current-layer="svg4" /><!--! Font Awesome Free 6.1.2 by @fontawesome - https://fontawesome.com License - https://fontawesome.com/license/free (Icons: CC BY 4.0, Fonts: SIL OFL 1.1, Code: MIT License) Copyright 2022 Fonticons, Inc. --><path
     d="M 15.5625,3.8820312 C 15.984375,3.035 16.851562,2.5 17.796875,2.5 h 9.40625 c 0.945312,0 1.812499,0.535 2.234375,1.3820312 l 0.562499,1.1179687 H 37.5 c 1.382812,0 2.5,1.1195313 2.5,2.5 0,1.3804687 -1.117188,2.5 -2.5,2.5 H 7.5000004 c -1.3804687,0 -2.4999999,-1.1195313 -2.4999999,-2.5 0,-1.3804687 1.1195312,-2.5 2.4999999,-2.5 H 15 Z M 35.84375,38.914062 C 35.71875,40.960937 34.085937,42.5 32.101562,42.5 H 12.898438 c -1.980469,0 -3.6195313,-1.539063 -3.7429688,-3.585938 L 7.429688,12.5 H 37.5 Z"
     id="path2"
     style="stroke-width:1" /><path
     d="m 32.561059,19.440201 c 0.586005,0.586005 0.586005,1.532981 0,2.118986 l -12.00131,12.001312 c -0.586005,0.586001 -1.53298,0.586001 -2.118985,0 l -6.001969,-6.000657 c -0.58581,-0.586002 -0.58581,-1.53298 0,-2.11898 0.58591,-0.586005 1.5357,-0.586005 2.121705,0 l 4.897565,4.936476 10.984014,-10.937137 c 0.586,-0.586935 1.53298,-0.586935 2.11898,0 z"
     id="path423"
     style="fill:#ffffff;stroke-width:0.999997" /></svg>
